<?xml version="1.0" encoding="UTF-8"?>
<svg width="20px" height="20px" viewBox="0 0 20 20" version="1.1" xmlns="http://www.w3.org/2000/svg" xmlns:xlink="http://www.w3.org/1999/xlink">
    <title>bell</title>
    <g id="Page-1" stroke="none" stroke-width="1" fill="none" fill-rule="evenodd">
        <g id="bell">
            <rect id="Rectangle" x="0" y="0" width="20" height="20"></rect>
            <path d="M9.98243765,20 C10.908726,20 11.698028,19.6738421 12.3503437,19.0215264 C13.0026594,18.3692107 13.3288173,17.5799087 13.3288173,16.6536204 L16.9883085,16.6536204 C17.1840032,16.6536204 17.4579758,16.6275277 17.8102263,16.5753425 C18.1624768,16.5231572 18.4168799,16.3339856 18.5734357,16.0078278 C18.7299915,15.6816699 18.710422,15.3555121 18.5147273,15.0293542 C18.3190326,14.7031963 18.0515831,14.3313764 17.7123789,13.9138943 C17.3470821,13.4703196 16.9654774,12.9484671 16.5675649,12.3483366 C16.1696523,11.7482061 15.970696,11.1285062 15.970696,10.4892368 L15.970696,6.39921722 C15.970696,5.51206784 15.8174018,4.6803653 15.5108134,3.90410959 C15.204225,3.12785388 14.7802198,2.44944553 14.2387977,1.86888454 C13.6973757,1.28832355 13.0613679,0.831702544 12.3307742,0.499021526 C11.6001806,0.166340509 10.8108786,0 9.96286818,0 C9.12790406,0 8.34512519,0.166340509 7.61453159,0.499021526 C6.88393798,0.831702544 6.25119173,1.28832355 5.71629284,1.86888454 C5.18139395,2.44944553 4.76065031,3.12785388 4.45406192,3.90410959 C4.14747353,4.6803653 3.99417934,5.51206784 3.99417934,6.39921722 L3.99417934,10.4892368 C3.99417934,11.1154599 3.78543831,11.7188519 3.36795624,12.2994129 C2.95047418,12.8799739 2.56560791,13.3985649 2.21335742,13.8551859 C1.90024587,14.272668 1.6523659,14.6542727 1.4697175,15 C1.2870691,15.3457273 1.27402278,15.6816699 1.43057855,16.0078278 C1.57408801,16.2948467 1.80566009,16.4742335 2.1252948,16.5459883 C2.4449295,16.617743 2.75477947,16.6536204 3.0548447,16.6536204 L6.63605801,16.6536204 C6.63605801,17.5799087 6.96221587,18.3692107 7.61453159,19.0215264 C8.26684731,19.6738421 9.05614933,20 9.98243765,20 Z M17.1252948,15.3228963 L2.82001104,15.3228963 L2.82001104,15.3228963 C2.88524261,15.2185258 2.96025892,15.1076321 3.04505996,14.9902153 C3.12986101,14.8727984 3.21140047,14.7619048 3.28967836,14.6575342 C3.66802148,14.148728 4.10181143,13.5388128 4.59104822,12.8277886 C5.08028501,12.1167645 5.32490341,11.3372472 5.32490341,10.4892368 L5.32490341,6.39921722 C5.32490341,5.69471624 5.44232024,5.03587736 5.6771539,4.42270059 C5.91198756,3.80952381 6.23814542,3.27462492 6.65562748,2.81800391 C7.07310954,2.36138291 7.56560791,1.99934768 8.13312259,1.73189824 C8.70063726,1.46444879 9.31055246,1.33072407 9.96286818,1.33072407 C10.6282302,1.33072407 11.2446686,1.46444879 11.8121833,1.73189824 C12.3796979,1.99934768 12.8721963,2.36138291 13.2896784,2.81800391 C13.7071604,3.27462492 14.0365799,3.80952381 14.2779367,4.42270059 C14.5192935,5.03587736 14.6399719,5.69471624 14.6399719,6.39921722 L14.6399719,10.4892368 C14.6399719,11.3633399 14.871544,12.1624266 15.3346881,12.8864971 C15.7978323,13.6105675 16.2446686,14.233529 16.6751969,14.7553816 C16.7534748,14.8467058 16.8317527,14.9412916 16.9100306,15.0391389 C16.9883085,15.1369863 17.0600632,15.2315721 17.1252948,15.3228963 Z M9.98243765,18.6888454 C9.42144613,18.6888454 8.94199408,18.4898891 8.54408149,18.0919765 C8.1461689,17.6940639 7.9472126,17.2146119 7.9472126,16.6536204 L12.0176627,16.6536204 C12.0176627,17.2146119 11.8187064,17.6940639 11.4207938,18.0919765 C11.0228812,18.4898891 10.5434292,18.6888454 9.98243765,18.6888454 Z" id="" fill="#FFFFFF" fill-rule="nonzero"></path>
        </g>
    </g>
</svg>