<?xml version="1.0" encoding="UTF-8"?>
<svg width="18px" height="20px" viewBox="0 0 18 20" version="1.1" xmlns="http://www.w3.org/2000/svg" xmlns:xlink="http://www.w3.org/1999/xlink">
    <title>bookmark</title>
    <g id="1.-Newsfeed" stroke="none" stroke-width="1" fill="none" fill-rule="evenodd">
        <path d="M15,0.5 C15.6903559,0.5 16.3153559,0.779822031 16.767767,1.23223305 C17.220178,1.68464406 17.5,2.30964406 17.5,3 L17.5,3 L17.5,18 C17.5,18.4142136 17.3321068,18.7892136 17.0606602,19.0606602 C16.8272381,19.2940822 16.5172425,19.4509306 16.1715853,19.4902933 L16.1715853,19.4902933 L8.89680542,13.3386575 L1.9561088,19.4919189 C1.55891419,19.4559527 1.2141135,19.301618 0.958997573,19.0628258 C0.670365395,18.7926618 0.5,18.4161418 0.5,18 L0.5,18 L0.5,3 C0.5,2.30964406 0.779822031,1.68464406 1.23223305,1.23223305 C1.68464406,0.779822031 2.30964406,0.5 3,0.5 L3,0.5 Z" id="bookmark" stroke="#303030"></path>
    </g>
</svg>