<?xml version="1.0" encoding="UTF-8"?>
<svg width="16px" height="16px" viewBox="0 0 16 16" version="1.1" xmlns="http://www.w3.org/2000/svg" xmlns:xlink="http://www.w3.org/1999/xlink">
    <!-- Generator: Sketch 59.1 (86144) - https://sketch.com -->
    <title>chia-se</title>
    <desc>Created with Sketch.</desc>
    <g id="chia-se" stroke="none" stroke-width="1" fill="none" fill-rule="evenodd">
        <path d="M13.5,11 C14.1875034,11 14.7760392,11.2447892 15.265625,11.734375 C15.7552108,12.2239608 16,12.8124966 16,13.5 C16,14.1875034 15.7552108,14.7760392 15.265625,15.265625 C14.7760392,15.7552108 14.1875034,16 13.5,16 C12.8124966,16 12.2239608,15.7552108 11.734375,15.265625 C11.2447892,14.7760392 11,14.1875034 11,13.5 C11,13.3958328 11.0052083,13.2968755 11.015625,13.203125 C11.0260417,13.1093745 11.0468748,13.0156255 11.078125,12.921875 L4.453125,9.546875 C4.22395719,9.83854312 3.94010586,10.0703116 3.6015625,10.2421875 C3.26301914,10.4140634 2.89583531,10.5 2.5,10.5 C1.81249656,10.5 1.22396078,10.2552108 0.734375,9.765625 C0.244789219,9.27603922 0,8.68750344 0,8 C0,7.31249656 0.244789219,6.72396078 0.734375,6.234375 C1.22396078,5.74478922 1.81249656,5.5 2.5,5.5 C2.86458516,5.5 3.20572758,5.57291594 3.5234375,5.71875 C3.84114742,5.86458406 4.11458219,6.06770703 4.34375,6.328125 L11.0625,3.0625 C11.0416666,2.96874953 11.0260417,2.87500047 11.015625,2.78125 C11.0052083,2.68749953 11,2.59375047 11,2.5 C11,1.81249656 11.2447892,1.22396078 11.734375,0.734375 C12.2239608,0.244789219 12.8124966,0 13.5,0 C14.1875034,0 14.7760392,0.244789219 15.265625,0.734375 C15.7552108,1.22396078 16,1.81249656 16,2.5 C16,3.18750344 15.7552108,3.77603922 15.265625,4.265625 C14.7760392,4.75521078 14.1875034,5 13.5,5 C13.0833312,5 12.7005226,4.90625094 12.3515625,4.71875 C12.0026024,4.53124906 11.7135428,4.28125156 11.484375,3.96875 L4.859375,7.1875 C4.90104188,7.31250062 4.9348957,7.44270766 4.9609375,7.578125 C4.9869793,7.71354234 5,7.85416594 5,8 C5,8.11458391 4.99218758,8.22656195 4.9765625,8.3359375 C4.96093742,8.44531305 4.93750016,8.55208281 4.90625,8.65625 L11.5,12.015625 C11.7187511,11.7031234 12.0026024,11.4557301 12.3515625,11.2734375 C12.7005226,11.0911449 13.0833312,11 13.5,11 Z M13.5,1 C13.0833312,1 12.7291681,1.14583188 12.4375,1.4375 C12.1458319,1.72916812 12,2.08333125 12,2.5 C12,2.91666875 12.1458319,3.27083188 12.4375,3.5625 C12.7291681,3.85416812 13.0833312,4 13.5,4 C13.9166688,4 14.2708319,3.85416812 14.5625,3.5625 C14.8541681,3.27083188 15,2.91666875 15,2.5 C15,2.08333125 14.8541681,1.72916812 14.5625,1.4375 C14.2708319,1.14583188 13.9166688,1 13.5,1 Z M2.5,9.5 C2.91666875,9.5 3.27083188,9.35416812 3.5625,9.0625 C3.85416812,8.77083188 4,8.41666875 4,8 C4,7.58333125 3.85416812,7.22916812 3.5625,6.9375 C3.27083188,6.64583188 2.91666875,6.5 2.5,6.5 C2.08333125,6.5 1.72916812,6.64583188 1.4375,6.9375 C1.14583188,7.22916812 1,7.58333125 1,8 C1,8.41666875 1.14583188,8.77083188 1.4375,9.0625 C1.72916812,9.35416812 2.08333125,9.5 2.5,9.5 Z M13.5,15 C13.9166688,15 14.2708319,14.8541681 14.5625,14.5625 C14.8541681,14.2708319 15,13.9166688 15,13.5 C15,13.0833312 14.8541681,12.7291681 14.5625,12.4375 C14.2708319,12.1458319 13.9166688,12 13.5,12 C13.0833312,12 12.7291681,12.1458319 12.4375,12.4375 C12.1458319,12.7291681 12,13.0833312 12,13.5 C12,13.9166688 12.1458319,14.2708319 12.4375,14.5625 C12.7291681,14.8541681 13.0833312,15 13.5,15 Z" id="share" fill="#4A4A4A" fill-rule="nonzero"></path>
    </g>
</svg>