<?xml version="1.0" encoding="UTF-8"?>
<svg width="32px" height="32px" viewBox="0 0 32 32" version="1.1" xmlns="http://www.w3.org/2000/svg" xmlns:xlink="http://www.w3.org/1999/xlink">
    <title>ins</title>
    <g id="1.-Newsfeed" stroke="none" stroke-width="1" fill="none" fill-rule="evenodd">
        <g id="20.1-Post-detail---Nha-dep" transform="translate(-988.000000, -645.000000)">
            <g id="Group-40" transform="translate(924.000000, 301.000000)">
                <g id="Group-39" transform="translate(16.000000, 344.000000)">
                    <g id="ins" transform="translate(48.000000, 0.000000)">
                        <circle id="Oval" fill="#E2517E" cx="16" cy="16" r="16"></circle>
                        <path d="M19.0954512,23.4505655 C20.2965253,23.3919766 21.3608919,23.1185613 22.2397266,22.2397266 C23.1185613,21.3608919 23.3919766,20.2965253 23.4505655,19.0954512 C23.5091545,18.0603792 23.4993897,17.035072 23.4993897,16 C23.4993897,14.964928 23.5091545,13.9396208 23.4505655,12.9045488 C23.3919766,11.7034747 23.1185613,10.6391081 22.2397266,9.76027342 C21.3608919,8.88143869 20.2965253,8.60802344 19.0954512,8.54943445 C18.0603792,8.49084547 17.035072,8.5006103 16,8.5006103 C14.964928,8.5006103 13.9396208,8.49084547 12.9045488,8.54943445 C11.7034747,8.60802344 10.6391081,8.88143869 9.76027342,9.76027342 C8.88143869,10.6391081 8.60802344,11.7034747 8.54943445,12.9045488 C8.50549272,13.6808528 8.5,14.4516641 8.5,15.2252217 L8.5006103,16 C8.5006103,17.035072 8.49084547,18.0603792 8.54943445,19.0954512 C8.60802344,20.2965253 8.88143869,21.3608919 9.76027342,22.2397266 C10.6391081,23.1185613 11.7034747,23.3919766 12.9045488,23.4505655 C13.9396208,23.5091545 14.964928,23.4993897 16,23.4993897 C17.035072,23.4993897 18.0603792,23.5091545 19.0954512,23.4505655 Z M11.5765319,21.8491334 C11.2347628,21.7124257 10.9808772,21.5464236 10.7172268,21.2827732 C10.4535764,21.0191228 10.2875743,20.7652372 10.1508666,20.4234681 C9.76027342,19.4372203 9.84815689,17.093661 9.84815689,16 C9.84815689,14.906339 9.76027342,12.5627797 10.1508666,11.5765319 C10.2875743,11.2347628 10.4535764,10.9808772 10.7172268,10.7172268 C10.9808772,10.4535764 11.2347628,10.2875743 11.5765319,10.1508666 C12.5627797,9.76027342 14.906339,9.84815689 16,9.84815689 C17.093661,9.84815689 19.4372203,9.76027342 20.4234681,10.1508666 C20.7652372,10.2875743 21.0191228,10.4535764 21.2827732,10.7172268 C21.5464236,10.9808772 21.7124257,11.2347628 21.8491334,11.5765319 C22.2397266,12.5627797 22.1518431,14.906339 22.1518431,16 C22.1518431,17.093661 22.2397266,19.4372203 21.8491334,20.4234681 C21.7124257,20.7652372 21.5464236,21.0191228 21.2827732,21.2827732 C21.0191228,21.5464236 20.7652372,21.7124257 20.4234681,21.8491334 C19.4372203,22.2397266 17.093661,22.1518431 16,22.1518431 C14.906339,22.1518431 12.5627797,22.2397266 11.5765319,21.8491334 Z M20.0035804,12.894784 C20.5015868,12.894784 20.9019448,12.4944259 20.9019448,11.9964196 C20.9019448,11.4984132 20.5015868,11.0980552 20.0035804,11.0980552 C19.5055741,11.0980552 19.105216,11.4984132 19.105216,11.9964196 C19.105216,12.4944259 19.5055741,12.894784 20.0035804,12.894784 Z M16,19.8473432 C18.128733,19.8473432 19.8473432,18.128733 19.8473432,16 C19.8473432,13.871267 18.128733,12.1526568 16,12.1526568 C13.871267,12.1526568 12.1526568,13.871267 12.1526568,16 C12.1526568,18.128733 13.871267,19.8473432 16,19.8473432 Z M16,18.4997966 C14.6231589,18.4997966 13.5002034,17.3768411 13.5002034,16 C13.5002034,14.6231589 14.6231589,13.5002034 16,13.5002034 C17.3768411,13.5002034 18.4997966,14.6231589 18.4997966,16 C18.4997966,17.3768411 17.3768411,18.4997966 16,18.4997966 Z" id="" fill="#FFFFFF" fill-rule="nonzero"></path>
                    </g>
                </g>
            </g>
        </g>
    </g>
</svg>