<?xml version="1.0" encoding="UTF-8"?>
<svg width="18px" height="18px" viewBox="0 0 18 18" version="1.1" xmlns="http://www.w3.org/2000/svg" xmlns:xlink="http://www.w3.org/1999/xlink">
    <title>mua-ban</title>
    <g id="PC" stroke="none" stroke-width="1" fill="none" fill-rule="evenodd">
        <g id="2.1-Search-Homepage" transform="translate(-327.000000, -70.000000)">
            <g id="mua-ban" transform="translate(327.000000, 70.000000)">
                <rect id="Rectangle" x="0" y="0" width="18" height="18"></rect>
                <g transform="translate(0.000000, 0.073171)" fill="#3C527D" fill-rule="nonzero">
                    <path d="M12.66,10.5425854 L12.66,16.3483902 L10.1498049,16.3483902 L10.1498049,10.458878 L5.80770732,10.458878 L5.80770732,16.3482439 L3.20004878,16.3482439 L3.20004878,8.06721951 L7.53892683,5.08360976 C7.55765854,4.30917073 7.74073171,3.57482927 8.05697561,2.91526829 L7.99287805,2.87019512 L7.5444878,3.17839024 L4.026,5.58717073 L4.026,4.36097561 L2.05317073,4.36097561 L2.05317073,6.93746341 L0,8.34307317 L0.885512195,9.63614634 L1.63273171,9.12453659 L1.63273171,16.3482439 L1.63273171,17.8052195 L14.2242439,17.8052195 L14.2271707,10.3720976 C13.793561,10.4863902 13.338878,10.547561 12.8701463,10.547561 C12.7994634,10.548 12.7296585,10.5453659 12.66,10.5425854 Z" id="Path"></path>
                    <path d="M13.0640488,0.104780488 C10.3879024,0.104780488 8.2182439,2.27443902 8.2182439,4.95073171 C8.2182439,7.62717073 10.3879024,9.79668293 13.0640488,9.79668293 C15.7404878,9.79668293 17.91,7.62702439 17.91,4.95058537 C17.9101463,2.27443902 15.7406341,0.104780488 13.0640488,0.104780488 Z M13.6603902,8.21531707 L13.6603902,9.29356098 L12.4299512,9.29356098 L12.4299512,8.29990244 C11.8366829,8.25219512 11.243561,8.07541463 10.8781463,7.83160976 L10.7560976,7.75039024 L11.1414146,6.40960976 L11.364,6.54102439 C11.814439,6.8064878 12.353561,6.95912195 12.8426341,6.95912195 C13.3732683,6.95912195 13.716439,6.72336585 13.716439,6.35868293 C13.716439,6.10917073 13.5983415,5.83536585 12.7438537,5.5235122 C11.8128293,5.1864878 10.8598537,4.68497561 10.8598537,3.52229268 C10.8598537,2.58614634 11.4801951,1.87609756 12.4909756,1.63756098 L12.4909756,0.60804878 L13.7212683,0.60804878 L13.7212683,1.56014634 C14.1990732,1.596 14.6121951,1.70692683 15.0084878,1.90536585 L15.1581951,1.98029268 L14.7722927,3.29429268 L14.5047805,3.17165854 C14.2649268,3.05956098 13.8624878,2.87209756 13.2679024,2.87209756 C12.7909756,2.87209756 12.5061951,3.06204878 12.5061951,3.38107317 C12.5061951,3.65868293 12.7732683,3.85492683 13.6060976,4.188 C14.8428293,4.65190244 15.372878,5.26843902 15.372878,6.24746341 C15.3725854,7.22443902 14.7061463,7.98190244 13.6603902,8.21531707 Z" id="Shape"></path>
                </g>
            </g>
        </g>
    </g>
</svg>