<?xml version="1.0" encoding="UTF-8"?>
<svg width="16px" height="16px" viewBox="0 0 16 16" version="1.1" xmlns="http://www.w3.org/2000/svg" xmlns:xlink="http://www.w3.org/1999/xlink">
    <!-- Generator: Sketch 59.1 (86144) - https://sketch.com -->
    <title>share-link</title>
    <desc>Created with Sketch.</desc>
    <g id="share-link" stroke="none" stroke-width="1" fill="none" fill-rule="evenodd">
        <path d="M8.52017937,10.8161435 L5.30941704,14.0269058 C4.843047,14.4813177 4.28699874,14.7085202 3.64125561,14.7085202 C2.99551247,14.7085202 2.44544323,14.4813177 1.99103139,14.0269058 C1.52466135,13.5605358 1.29147982,13.0044875 1.29147982,12.3587444 C1.29147982,11.7130013 1.52466135,11.156953 1.99103139,10.690583 L5.1838565,7.47982063 C5.31539677,7.36023857 5.38116592,7.21076323 5.38116592,7.03139013 C5.38116592,6.85201704 5.31838628,6.6995522 5.19282511,6.57399103 C5.06726395,6.44842987 4.9147991,6.38565022 4.73542601,6.38565022 C4.55605291,6.38565022 4.40657758,6.45141937 4.28699552,6.58295964 L1.07623318,9.77578475 C0.358740807,10.4932771 0,11.3542551 0,12.3587444 C0,13.3632337 0.3557513,14.2212222 1.06726457,14.9327354 C1.77877785,15.6442487 2.63676628,16 3.64125561,16 C4.64574493,16 5.50672287,15.6472382 6.22421525,14.941704 L9.43497758,11.7309417 C9.55455964,11.5994014 9.61434978,11.4439471 9.61434978,11.264574 C9.61434978,11.0852009 9.55157013,10.9327361 9.42600897,10.8071749 C9.3004478,10.6816137 9.14798296,10.6188341 8.96860987,10.6188341 C8.78923677,10.6188341 8.63976143,10.6846032 8.52017937,10.8161435 Z M16,3.64125561 C16,2.63676628 15.6442487,1.77877785 14.9327354,1.06726457 C14.2212222,0.3557513 13.3632337,0 12.3587444,0 C11.3542551,0 10.4932771,0.358740807 9.77578475,1.07623318 L6.56502242,4.28699552 C6.44544036,4.40657758 6.38565022,4.55605291 6.38565022,4.73542601 C6.38565022,4.9147991 6.44842987,5.06726395 6.57399103,5.19282511 C6.6995522,5.31838628 6.85201704,5.38116592 7.03139013,5.38116592 C7.21076323,5.38116592 7.36023857,5.32137578 7.47982063,5.20179372 L10.690583,1.99103139 C11.156953,1.52466135 11.7130013,1.29147982 12.3587444,1.29147982 C13.0044875,1.29147982 13.5575463,1.52167184 14.0179372,1.98206278 C14.4783282,2.44245372 14.7085202,2.99850197 14.7085202,3.65022422 C14.7085202,4.30194646 14.4753387,4.8550052 14.0089686,5.30941704 L10.8161435,8.52017937 C10.6846032,8.63976143 10.6188341,8.78923677 10.6188341,8.96860987 C10.6188341,9.14798296 10.6816137,9.3004478 10.8071749,9.42600897 C10.9327361,9.55157013 11.0852009,9.61434978 11.264574,9.61434978 C11.4439471,9.61434978 11.5994014,9.55455964 11.7309417,9.43497758 L14.941704,6.22421525 C15.6472382,5.50672287 16,4.64574493 16,3.64125561 Z M7.51569507,9.41704036 C7.396113,9.54858063 7.24663767,9.61434978 7.06726457,9.61434978 C6.88789148,9.61434978 6.73542664,9.55157013 6.60986547,9.42600897 C6.4843043,9.3004478 6.42152466,9.14798296 6.42152466,8.96860987 C6.42152466,8.78923767 6.48729381,8.63976143 6.61883408,8.52017937 L8.44843049,6.69058296 C8.56801256,6.55904269 8.71748879,6.49327354 8.89686099,6.49327354 C9.07623408,6.49327354 9.22869892,6.55605318 9.35426009,6.68161435 C9.47982126,6.80717552 9.5426009,6.95964036 9.5426009,7.13901345 C9.5426009,7.31838655 9.47683175,7.46786188 9.34529148,7.58744395 L7.51569507,9.41704036 Z" id="" fill="#4A4A4A" fill-rule="nonzero"></path>
    </g>
</svg>