<?xml version="1.0" encoding="UTF-8"?>
<svg width="20px" height="14px" viewBox="0 0 20 14" version="1.1" xmlns="http://www.w3.org/2000/svg" xmlns:xlink="http://www.w3.org/1999/xlink">
    <title>view-02</title>
    <g id="1.-Newsfeed" stroke="none" stroke-width="1" fill="none" fill-rule="evenodd">
        <g id="view-02" fill="#4A4A4A" fill-rule="nonzero">
            <path d="M10,13.7621832 C11.0396361,13.7621832 12.0565302,13.6159844 13.0506823,13.3235867 C14.0448343,13.0311891 14.977258,12.6088369 15.8479532,12.0565302 C16.7186485,11.5042235 17.5048733,10.8252112 18.2066277,10.0194932 C18.9083821,9.21377518 19.4801819,8.29109812 19.9220273,7.25146199 C19.9350227,7.23846654 19.9415205,7.22871995 19.9415205,7.22222222 L19.9415205,7.19298246 L19.9415205,7.19298246 C19.9415205,7.19298246 19.9447693,7.18973359 19.9512671,7.18323587 C19.9577648,7.17673814 19.9610136,7.17348928 19.9610136,7.17348928 L19.9610136,7.11500975 L19.9610136,7.11500975 C19.9610136,7.10201429 19.9675114,7.08901884 19.9805068,7.07602339 C19.9805068,7.05003249 19.9837557,7.02079272 19.9902534,6.98830409 C19.9967511,6.95581546 20,6.9265757 20,6.9005848 C20,6.87459389 19.9967511,6.84860299 19.9902534,6.82261209 C19.9837557,6.79662118 19.9805068,6.77063028 19.9805068,6.74463938 C19.9675114,6.71864847 19.9610136,6.6991553 19.9610136,6.68615984 L19.9610136,6.64717349 L19.9610136,6.64717349 C19.9610136,6.63417804 19.9577648,6.62443145 19.9512671,6.61793372 L19.9415205,6.60818713 L19.9415205,6.60818713 L19.9415205,6.57894737 L19.9415205,6.57894737 C19.9415205,6.57244964 19.9350227,6.56270305 19.9220273,6.5497076 C19.4801819,5.51007147 18.9083821,4.58414555 18.2066277,3.77192982 C17.5048733,2.9597141 16.7251462,2.27420403 15.8674464,1.71539961 C15.0097466,1.15659519 14.0838207,0.730994152 13.0896686,0.438596491 C12.0955166,0.14619883 11.0786225,-8.52651283e-14 10.0389864,-8.52651283e-14 C8.99935023,-8.52651283e-14 7.97920728,0.14619883 6.9785575,0.438596491 C5.97790773,0.730994152 5.04223522,1.15659519 4.17153996,1.71539961 C3.3008447,2.27420403 2.51137102,2.9597141 1.80311891,3.77192982 C1.0948668,4.58414555 0.513320338,5.51007147 0.0584795322,6.5497076 L0.0584795322,6.60818713 L0.0584795322,6.60818713 L0.0487329435,6.61793372 L0.0487329435,6.61793372 C0.0422352177,6.62443145 0.0389863548,6.62768031 0.0389863548,6.62768031 L0.0389863548,6.68615984 L0.0389863548,6.68615984 C0.0389863548,6.6991553 0.032488629,6.71215075 0.0194931774,6.7251462 C0.0194931774,6.7511371 0.0162443145,6.78037687 0.00974658869,6.8128655 C0.0032488629,6.84535413 0,6.87459389 0,6.9005848 C0,6.9265757 0.0032488629,6.9525666 0.00974658869,6.9785575 C0.0162443145,7.00454841 0.0194931774,7.03053931 0.0194931774,7.05653021 C0.032488629,7.08252112 0.0389863548,7.10201429 0.0389863548,7.11500975 L0.0389863548,7.1539961 L0.0389863548,7.1539961 C0.0389863548,7.16699155 0.0422352177,7.17673814 0.0487329435,7.18323587 C0.0552306693,7.18973359 0.0584795322,7.19298246 0.0584795322,7.19298246 L0.0584795322,7.25146199 L0.0584795322,7.25146199 C0.513320338,8.29109812 1.09161793,9.21377518 1.79337232,10.0194932 C2.49512671,10.8252112 3.28135153,11.5042235 4.15204678,12.0565302 C5.02274204,12.6088369 5.95516569,13.0311891 6.94931774,13.3235867 C7.94346979,13.6159844 8.96036387,13.7621832 10,13.7621832 Z M10,12.5146199 C9.11630929,12.5146199 8.24561404,12.3976608 7.38791423,12.1637427 C6.53021442,11.9298246 5.72124756,11.5789474 4.96101365,11.1111111 C4.20077973,10.6432749 3.5022742,10.0584795 2.86549708,9.35672515 C2.22871995,8.65497076 1.70240416,7.83625731 1.28654971,6.9005848 C1.70240416,5.96491228 2.22871995,5.14619883 2.86549708,4.44444444 C3.5022742,3.74269006 4.20402859,3.15464587 4.97076023,2.68031189 C5.73749188,2.20597791 6.55295647,1.84860299 7.417154,1.60818713 C8.28135153,1.36777128 9.15529565,1.24756335 10.0389864,1.24756335 C10.9226771,1.24756335 11.7933723,1.36777128 12.6510721,1.60818713 C13.5087719,1.84860299 14.3177388,2.20597791 15.0779727,2.68031189 C15.8382066,3.15464587 16.5302144,3.74269006 17.1539961,4.44444444 C17.7777778,5.14619883 18.2975958,5.96491228 18.7134503,6.9005848 C18.2975958,7.83625731 17.7745289,8.65497076 17.1442495,9.35672515 C16.5139701,10.0584795 15.8187135,10.6432749 15.0584795,11.1111111 C14.2982456,11.5789474 13.4860299,11.9298246 12.6218324,12.1637427 C11.7576348,12.3976608 10.8836907,12.5146199 10,12.5146199 Z M10.0584795,10.6432749 C11.0981157,10.6432749 11.9818064,10.2794022 12.7095517,9.55165692 C13.4372969,8.82391163 13.8011696,7.94022092 13.8011696,6.9005848 C13.8011696,5.87394412 13.4372969,4.99350227 12.7095517,4.25925926 C11.9818064,3.52501624 11.0981157,3.15789474 10.0584795,3.15789474 C9.03183886,3.15789474 8.15139701,3.52501624 7.417154,4.25925926 C6.68291098,4.99350227 6.31578947,5.87394412 6.31578947,6.9005848 C6.31578947,7.94022092 6.68291098,8.82391163 7.417154,9.55165692 C8.15139701,10.2794022 9.03183886,10.6432749 10.0584795,10.6432749 Z M10.0584795,9.3957115 C9.38271605,9.3957115 8.79467186,9.14879792 8.29434698,8.65497076 C7.79402209,8.1611436 7.54385965,7.56985055 7.54385965,6.88109162 C7.54385965,6.19233268 7.78752437,5.6042885 8.2748538,5.11695906 C8.76218324,4.62962963 9.35022742,4.38596491 10.0389864,4.38596491 C10.7277453,4.38596491 11.3157895,4.62962963 11.8031189,5.11695906 C12.2904483,5.6042885 12.5341131,6.19233268 12.5341131,6.88109162 C12.5341131,7.56985055 12.2936972,8.1611436 11.8128655,8.65497076 C11.3320338,9.14879792 10.7472385,9.3957115 10.0584795,9.3957115 Z"></path>
        </g>
    </g>
</svg>