<?xml version="1.0" encoding="UTF-8"?>
<svg width="28px" height="24px" viewBox="0 0 28 24" version="1.1" xmlns="http://www.w3.org/2000/svg" xmlns:xlink="http://www.w3.org/1999/xlink">
    <title>yeu-decor</title>
    <g id="Mobile" stroke="none" stroke-width="1" fill="none" fill-rule="evenodd">
        <g id="2.1-Homepage---Internal-Link-mb" transform="translate(-130.000000, -412.000000)" fill-rule="nonzero">
            <g id="Group-35" transform="translate(0.000000, 276.000000)">
                <g id="Group-56" transform="translate(15.000000, 0.000000)">
                    <g id="Group-52" transform="translate(9.000000, 124.000000)">
                        <g id="Group-44" transform="translate(96.000000, 0.000000)">
                            <g id="yeu-decor" transform="translate(10.000000, 12.000000)">
                                <path d="M20.1362416,18.8497296 L5.33256853,18.8497296 L5.33256853,23.8330229 C5.33256853,23.8576322 5.33145208,23.8820313 5.33055891,23.9064303 L20.1382512,23.9064303 C20.137358,23.8820313 20.1362416,23.8576322 20.1362416,23.8330229 L20.1362416,18.8497296 Z" id="Path" fill="#0095DA"></path>
                                <path d="M23.5311899,6.71941103 L21.4810397,6.71941103 C21.2338942,6.71941103 21.0004206,6.60603968 20.847506,6.41189904 C20.6945913,6.21754808 20.6392728,5.96388218 20.6973257,5.72367788 L20.6973257,5.72367788 L21.9303185,0.627433908 C22.0178185,0.265655062 22.3417368,0.0107271769 22.7138221,0.0107271769 L22.7138221,0.0107271769 L25.9609976,0.0107271769 C26.3332933,0.0107271769 26.6570012,0.265655062 26.7445012,0.627433908 L26.7445012,0.627433908 L27.977494,5.72367788 C28.0355469,5.96388218 27.9802283,6.21754808 27.8273137,6.41189904 C27.674399,6.60603968 27.4409255,6.71941103 27.1937801,6.71941103 L27.1937801,6.71941103 L25.1436298,6.71941103 L25.1427587,8.61472718 L25.1461538,8.61538462 L25.1461538,13.1923077 L25.1427587,13.2427272 L25.1436298,13.2617187 L25.1417587,13.2607272 L25.1398608,13.2936229 C25.0900208,13.6918774 24.7502241,14 24.3384615,14 C23.8923854,14 23.5307692,13.6383838 23.5307692,13.1923077 L23.5311899,6.71941103 Z" id="Combined-Shape" fill="#F89520"></path>
                                <path d="M20.1455437,17.9307692 L20.1455437,16.1504837 C20.1455437,14.8490084 21.2058956,13.7902339 22.50931,13.7902339 L22.6946815,13.7902339 L22.6946815,11.0865858 C22.6946815,10.6145806 22.3102983,10.2307692 21.8375898,10.2307692 L3.62869624,10.2307692 C3.15621133,10.2307692 2.77160458,10.6145806 2.77160458,11.0865858 L2.77160458,13.7902339 L2.95697608,13.7902339 C4.26039051,13.7902339 5.32074235,14.8490084 5.32074235,16.1504837 L5.32074235,17.9307692 L20.1455437,17.9307692 Z" id="Path" fill="#0095DA"></path>
                                <path d="M4.14825718,15.4851863 C4.14825718,15.1484375 3.87418872,14.8741587 3.53722955,14.8741587 L0.659194738,14.8741587 C0.322235577,14.8741587 0.0481670538,15.1484375 0.0481670538,15.4851863 L0.0481670538,23.3017128 C0.0481670538,23.6386719 0.322235577,23.9127404 0.659194738,23.9127404 L3.53722955,23.9127404 C3.87418872,23.9127404 4.14825718,23.6386719 4.14825718,23.3017128 L4.14825718,15.4851863 Z" id="Path" fill="#0095DA"></path>
                                <path d="M25.4183294,23.3017128 L25.4183294,15.4851863 C25.4183294,15.1484375 25.1440505,14.8741587 24.8070913,14.8741587 L21.9290565,14.8741587 C21.5920974,14.8741587 21.3180288,15.1484375 21.3180288,15.4851863 L21.3180288,23.3017128 C21.3180288,23.6386719 21.5920974,23.9127404 21.9290565,23.9127404 L24.8070913,23.9127404 C25.1440505,23.9127404 25.4183294,23.6386719 25.4183294,23.3017128 L25.4183294,23.3017128 Z" id="Path" fill="#0095DA"></path>
                            </g>
                        </g>
                    </g>
                </g>
            </g>
        </g>
    </g>
</svg>