<?xml version="1.0" encoding="UTF-8"?>
<svg width="134px" height="35px" viewBox="0 0 134 35" version="1.1" xmlns="http://www.w3.org/2000/svg" xmlns:xlink="http://www.w3.org/1999/xlink">
    <!-- Generator: Sketch 59.1 (86144) - https://sketch.com -->
    <title>logo-homedy-white</title>
    <desc>Created with Sketch.</desc>
    <defs>
        <polygon id="path-1" points="0.0346485714 0.0385636364 75.841639 0.0385636364 75.841639 8.27272727 0.0346485714 8.27272727"></polygon>
        <polygon id="path-3" points="0 0.0371593073 36.5930613 0.0371593073 36.5930613 18.167485 0 18.167485"></polygon>
    </defs>
    <g id="Filter" stroke="none" stroke-width="1" fill="none" fill-rule="evenodd">
        <g id="logo-homedy-white">
            <path d="M18.2964876,9.51096364 C19.67924,9.51096364 20.8003733,10.6290545 20.8003733,12.0074182 C20.8003733,13.3864182 19.67924,14.5045091 18.2964876,14.5045091 C16.9137352,14.5045091 15.7926019,13.3864182 15.7926019,12.0074182 C15.7926019,10.6290545 16.9137352,9.51096364 18.2964876,9.51096364 M18.2964876,17.3675091 C14.5444876,14.5127818 8.97902095,16.5930545 8.97902095,21.9703273 C8.97902095,25.8559636 13.8802305,28.5611455 16.2296971,30.1915091 C11.2627638,31.5049636 5.96848762,29.9178727 6.23648762,22.8198727 L6.23648762,13.5474182 L3.03452571,13.5474182 L3.03452571,24.5686 C3.03452571,32.1266909 10.3120019,34.7364182 18.2964876,31.5724182 C26.2809733,34.7364182 33.5590876,32.1266909 33.5590876,24.5686 L33.5590876,13.5474182 L30.3564876,13.5474182 L30.3564876,22.8198727 C30.6627733,30.9201455 23.72604,31.8428727 18.2964876,29.4692364 C14.7091162,27.7586909 12.101221,24.4184182 12.101221,21.9703273 C12.101221,18.8546909 16.7491067,18.1298727 18.2964876,21.3626 C19.8438686,18.1298727 24.4917543,18.8546909 24.4917543,21.9703273 C24.4917543,25.3812364 21.3759352,27.6880545 18.9409638,28.9913273 C19.6505257,29.3056909 20.0601829,29.4259636 20.9420305,29.6811455 C23.6335162,28.4256 27.6133162,25.0598727 27.6133162,21.9703273 C27.6133162,16.5930545 22.0484876,14.5127818 18.2964876,17.3675091" id="Fill-1" fill="#FEFEFE"></path>
            <path d="M125.669092,24.3772455 C125.191797,24.3772455 124.798092,24.2117909 124.341216,24.2117909 L123.96793,24.2117909 C123.615064,24.2117909 123.34515,24.4809727 123.34515,24.8328818 L123.34515,25.9503364 C123.34515,26.2602455 123.615064,26.5084273 123.96793,26.5707909 C124.632188,26.6948818 125.773102,26.7769727 126.602626,26.7769727 C128.988464,26.7769727 130.23275,25.4119727 131.166283,22.1226091 L133.822035,12.6885182 C133.904988,12.3779727 133.677188,12.0877909 133.34474,12.0877909 L131.208397,12.0877909 C130.835111,12.0877909 130.461826,12.3779727 130.357816,12.7712455 L128.345264,19.8469727 C127.453207,19.8469727 126.810007,19.2258818 126.12533,17.0533364 L124.798092,12.7712455 C124.673026,12.3779727 124.258264,12.0877909 123.884978,12.0877909 L121.769054,12.0877909 C121.437245,12.0877909 121.188388,12.3779727 121.292397,12.6885182 L122.806597,17.5713364 C123.96793,21.2947 125.523607,22.2880636 127.660588,22.2880636 C127.287302,23.6740636 126.644102,24.3772455 125.669092,24.3772455 L125.669092,24.3772455 Z M112.951854,23.3635182 C114.425216,23.3635182 115.56613,22.8881545 116.499664,22.2257 L116.499664,22.5356091 C116.499664,22.8881545 116.769578,23.1567 117.121807,23.1567 L119.071826,23.1567 C119.424692,23.1567 119.694607,22.8881545 119.694607,22.5356091 L119.694607,9.28142727 C119.694607,8.92633636 119.424692,8.65397273 119.071826,8.65397273 L116.811054,8.65397273 C116.458188,8.65397273 116.188911,8.92633636 116.188911,9.28142727 L116.188911,12.3983364 C115.33833,12.1297909 114.508169,11.8809727 113.263883,11.8809727 C110.026826,11.8809727 107.82795,13.8263364 107.82795,17.6324273 C107.82795,21.4194273 110.006407,23.3635182 112.951854,23.3635182 L112.951854,23.3635182 Z M113.782016,20.9224273 C112.12233,20.9224273 111.437654,19.9087 111.437654,17.6324273 C111.437654,15.3364273 112.12233,14.3227 113.989397,14.3227 C114.508169,14.3227 115.33833,14.4677909 116.188911,14.7369727 L116.188911,20.0124273 C115.462121,20.4667909 114.528588,20.9224273 113.782016,20.9224273 L113.782016,20.9224273 Z M100.671073,14.1782455 C102.205692,14.1782455 102.952902,15.0048818 103.014797,16.5569727 L98.3056543,16.5569727 C98.3886067,15.0048818 99.1772924,14.1782455 100.671073,14.1782455 L100.671073,14.1782455 Z M105.960883,18.6881545 C106.31375,18.6881545 106.583664,18.4189727 106.583664,18.0670636 L106.583664,17.4879727 C106.583664,13.8467 104.363092,11.8809727 100.671073,11.8809727 C96.9988352,11.8809727 94.7584829,13.9090636 94.7584829,17.6324273 C94.7584829,21.3774273 96.9777781,23.3635182 100.671073,23.3635182 C103.989807,23.3635182 106.20974,22.6189727 106.20974,20.4667909 C106.20974,20.1155182 105.940464,19.8469727 105.587597,19.8469727 L104.072759,19.8469727 C103.554626,19.8469727 103.18134,20.0537909 102.911426,20.3847 C102.558559,20.8187 101.79093,21.0675182 100.91993,21.0675182 C99.2187686,21.0675182 98.4721971,20.3433364 98.3260733,18.6881545 L105.960883,18.6881545 Z M81.9582924,22.5356091 C81.9582924,22.8881545 82.2282067,23.1567 82.5810733,23.1567 L84.8424829,23.1567 C85.1947114,23.1567 85.4646257,22.8881545 85.4646257,22.5356091 L85.4646257,16.7434273 C85.4646257,16.4538818 85.4435686,16.1643364 85.4027305,15.8747909 C86.1282448,14.8807909 86.9373495,14.3227 87.6220257,14.3227 C88.742521,14.3227 89.385721,15.0258818 89.385721,16.7434273 L89.385721,22.5356091 C89.385721,22.8881545 89.6556352,23.1567 90.0072257,23.1567 L92.2686352,23.1567 C92.6215019,23.1567 92.8914162,22.8881545 92.8914162,22.5356091 L92.8914162,16.7434273 C92.8914162,13.3083364 91.127721,11.8809727 88.5970352,11.8809727 C87.1651495,11.8809727 85.9004448,12.6261545 84.7378352,13.8263364 C83.9497876,12.5427909 82.8292924,11.8809727 81.1702448,11.8809727 C79.71794,11.8809727 78.8463019,12.5644273 78.0378352,13.3503364 L78.0378352,12.7088818 C78.0378352,12.3569727 77.767921,12.0877909 77.4150543,12.0877909 L75.1536448,12.0877909 C74.8014162,12.0877909 74.5315019,12.3569727 74.5315019,12.7088818 L74.5315019,22.5356091 C74.5315019,22.8881545 74.8014162,23.1567 75.1536448,23.1567 L77.4150543,23.1567 C77.767921,23.1567 78.0378352,22.8881545 78.0378352,22.5356091 L78.0378352,15.7710636 C78.6803971,14.8807909 79.3235971,14.3227 80.1945971,14.3227 C81.3150924,14.3227 81.9582924,15.0258818 81.9582924,16.7434273 L81.9582924,22.5356091 Z M66.5444638,11.8809727 C62.6233686,11.8809727 60.4244924,13.8053364 60.4244924,17.6120636 C60.4244924,21.4194273 62.6233686,23.3635182 66.5444638,23.3635182 C70.465559,23.3635182 72.6644352,21.4194273 72.6644352,17.6120636 C72.6644352,13.8053364 70.465559,11.8809727 66.5444638,11.8809727 L66.5444638,11.8809727 Z M66.5444638,21.0675182 C64.7814067,21.0675182 63.9308257,20.0537909 63.9308257,17.6120636 C63.9308257,15.1709727 64.7814067,14.1782455 66.5444638,14.1782455 C68.307521,14.1782455 69.1581019,15.1709727 69.1581019,17.6120636 C69.1581019,20.0537909 68.307521,21.0675182 66.5444638,21.0675182 L66.5444638,21.0675182 Z M54.532959,22.2257 C54.532959,22.7430636 54.96814,23.1567 55.4869114,23.1567 L57.3750352,23.1567 C57.9142257,23.1567 58.3500448,22.7220636 58.3500448,22.2053364 L58.3500448,9.60915455 C58.3500448,9.07079091 57.9142257,8.65397273 57.3750352,8.65397273 L55.4869114,8.65397273 C54.96814,8.65397273 54.532959,9.07079091 54.532959,9.60915455 L54.532959,14.1782455 L47.5624067,14.1782455 L47.5624067,9.60915455 C47.5624067,9.07079091 47.1265876,8.65397273 46.6084543,8.65397273 L44.7203305,8.65397273 C44.1805019,8.65397273 43.745321,9.07079091 43.745321,9.60915455 L43.745321,22.2053364 C43.745321,22.7220636 44.1805019,23.1567 44.7203305,23.1567 L46.6084543,23.1567 C47.1265876,23.1567 47.5624067,22.7430636 47.5624067,22.2257 L47.5624067,17.0329727 L54.532959,17.0329727 L54.532959,22.2257 Z" id="Fill-3" fill="#FEFEFE"></path>
            <g id="Group-7" transform="translate(44.028571, 26.690109)">
                <mask id="mask-2" fill="white">
                    <use xlink:href="#path-1"></use>
                </mask>
                <g id="Clip-6"></g>
                <path d="M73.978401,2.48410909 C73.6657343,2.48410909 73.4041152,2.59801818 73.1909914,2.82583636 C72.9797819,3.05429091 72.8483343,3.37310909 72.7979248,3.78356364 L75.0669914,3.78356364 L75.0669914,3.72501818 C75.0446581,3.33047273 74.9387343,3.02565455 74.7485819,2.80929091 C74.5584295,2.59229091 74.3012771,2.48410909 73.978401,2.48410909 L73.978401,2.48410909 Z M74.0741152,6.53710909 C73.4609057,6.53710909 72.960639,6.33601818 72.5752295,5.93447273 C72.1904581,5.53101818 71.9977533,4.99329091 71.9977533,4.32001818 L71.9977533,4.17683636 C71.9977533,3.72947273 72.0832581,3.3292 72.2555438,2.97729091 C72.4265533,2.62538182 72.6664771,2.34856364 72.9753152,2.15129091 C73.2841533,1.95147273 73.6185152,1.85156364 73.978401,1.85156364 C74.5673629,1.85156364 75.0248771,2.04565455 75.3515819,2.43129091 C75.6770105,2.81883636 75.841639,3.37310909 75.841639,4.09410909 L75.841639,4.41674545 L72.772401,4.41674545 C72.7838867,4.86092727 72.9140581,5.22047273 73.1641914,5.49347273 C73.4136867,5.76774545 73.73082,5.90392727 74.1168676,5.90392727 C74.3899724,5.90392727 74.621601,5.84856364 74.8117533,5.7372 C75.0019057,5.62583636 75.1671724,5.47947273 75.3101057,5.29747273 L75.7829343,5.66465455 C75.4026295,6.24629091 74.8328105,6.53710909 74.0741152,6.53710909 L74.0741152,6.53710909 Z M65.4062295,1.93747273 L65.4266486,2.43574545 C65.7590962,2.04692727 66.206401,1.85156364 66.7711152,1.85156364 C67.4034676,1.85156364 67.8354581,2.09401818 68.0638962,2.57829091 C68.2144867,2.36065455 68.41102,2.18501818 68.6528581,2.05201818 C68.8927819,1.91838182 69.1786486,1.85156364 69.5085438,1.85156364 C70.5020581,1.85156364 71.0061533,2.37592727 71.0233819,3.42465455 L71.0233819,6.4512 L70.2487343,6.4512 L70.2487343,3.47365455 C70.2487343,3.15101818 70.1747152,2.9092 70.0279533,2.74947273 C69.878639,2.58974545 69.6316962,2.5102 69.28202,2.5102 C68.994239,2.5102 68.7555914,2.59547273 68.5660771,2.76601818 C68.377201,2.9372 68.2655343,3.16692727 68.2355438,3.45583636 L68.2355438,6.4512 L67.4564295,6.4512 L67.4564295,3.49465455 C67.4564295,2.83792727 67.1335533,2.5102 66.4897152,2.5102 C65.9824295,2.5102 65.6353057,2.72529091 65.4477057,3.15674545 L65.4477057,6.4512 L64.6730581,6.4512 L64.6730581,1.93747273 L65.4062295,1.93747273 Z M60.3620867,4.24301818 C60.3620867,4.7432 60.47822,5.14665455 60.7104867,5.44956364 C60.9433914,5.75374545 61.2566962,5.90392727 61.6465724,5.90392727 C62.039639,5.90392727 62.3523057,5.75056364 62.5845724,5.44256364 C62.8155629,5.13456364 62.9316962,4.70438182 62.9316962,4.15010909 C62.9316962,3.65438182 62.8142867,3.25347273 62.5788295,2.94610909 C62.3427343,2.63810909 62.0294295,2.48410909 61.6382771,2.48410909 C61.2566962,2.48410909 60.9478581,2.63492727 60.7136771,2.93910909 C60.4794962,3.24201818 60.3620867,3.67729091 60.3620867,4.24301818 L60.3620867,4.24301818 Z M59.5829724,4.15265455 C59.5829724,3.70974545 59.6703914,3.31201818 59.8452295,2.95883636 C60.0194295,2.60374545 60.2619057,2.33201818 60.5732962,2.1392 C60.8840486,1.94701818 61.2394676,1.85156364 61.6382771,1.85156364 C62.2553152,1.85156364 62.7536676,2.06410909 63.1358867,2.48983636 C63.5161914,2.9162 63.7057057,3.4832 63.7057057,4.1902 L63.7057057,4.24429091 C63.7057057,4.68465455 63.6221152,5.0792 63.45302,5.42856364 C63.2839248,5.77729091 63.0427248,6.04965455 62.7281438,6.24501818 C62.4154771,6.44038182 62.0543152,6.53710909 61.6465724,6.53710909 C61.0320867,6.53710909 60.5350105,6.32456364 60.1547057,5.8982 C59.7731248,5.47247273 59.5829724,4.90865455 59.5829724,4.20738182 L59.5829724,4.15265455 Z M55.8424581,2.48156364 C56.1851152,2.06092727 56.63242,1.85156364 57.18182,1.85156364 C58.1389629,1.85156364 58.622001,2.39056364 58.6302962,3.46729091 L58.6302962,6.4512 L57.8556486,6.4512 L57.8556486,3.46474545 C57.8530962,3.13956364 57.778439,2.89838182 57.6316771,2.74310909 C57.4855533,2.58847273 57.2571152,2.5102 56.947001,2.5102 C56.6968676,2.5102 56.4754486,2.57701818 56.2852962,2.70938182 C56.0970581,2.84301818 55.9483819,3.01865455 55.8424581,3.23565455 L55.8424581,6.4512 L55.0678105,6.4512 L55.0678105,0.0385636364 L55.8424581,0.0385636364 L55.8424581,2.48156364 Z M52.2314771,2.62538182 C52.1140676,2.60501818 51.9870867,2.59547273 51.8511724,2.59547273 C51.3426105,2.59547273 50.998039,2.81056364 50.81682,3.24201818 L50.81682,6.4512 L50.0421724,6.4512 L50.0421724,1.93747273 L50.7957629,1.93747273 L50.8078867,2.45674545 C51.0631248,2.05392727 51.4223724,1.85156364 51.88882,1.85156364 C52.0400486,1.85156364 52.1542676,1.87129091 52.2314771,1.91010909 L52.2314771,2.62538182 Z M47.286239,2.48410909 C46.9735724,2.48410909 46.7119533,2.59801818 46.4988295,2.82583636 C46.28762,3.05429091 46.1555343,3.37310909 46.1057629,3.78356364 L48.3748295,3.78356364 L48.3748295,3.72501818 C48.3518581,3.33047273 48.2465724,3.02565455 48.05642,2.80929091 C47.8662676,2.59229091 47.6091152,2.48410909 47.286239,2.48410909 L47.286239,2.48410909 Z M47.3813152,6.53710909 C46.7687438,6.53710909 46.2684771,6.33601818 45.8830676,5.93447273 C45.4982962,5.53101818 45.3055914,4.99329091 45.3055914,4.32001818 L45.3055914,4.17683636 C45.3055914,3.72947273 45.3910962,3.3292 45.5633819,2.97729091 C45.7343914,2.62538182 45.9743152,2.34856364 46.2831533,2.15129091 C46.5919914,1.95147273 46.9257152,1.85156364 47.286239,1.85156364 C47.875201,1.85156364 48.3320771,2.04565455 48.65942,2.43129091 C48.9848486,2.81883636 49.1494771,3.37310909 49.1494771,4.09410909 L49.1494771,4.41674545 L46.079601,4.41674545 C46.0917248,4.86092727 46.2218962,5.22047273 46.4720295,5.49347273 C46.7215248,5.76774545 47.0386581,5.90392727 47.4247057,5.90392727 C47.6971724,5.90392727 47.929439,5.84856364 48.1195914,5.7372 C48.3091057,5.62583636 48.4750105,5.47947273 48.6179438,5.29747273 L49.0907724,5.66465455 C48.7104676,6.24629091 48.1406486,6.53710909 47.3813152,6.53710909 L47.3813152,6.53710909 Z M43.7537438,0.842927273 L43.7537438,1.93747273 L44.5985819,1.93747273 L44.5985819,2.53565455 L43.7537438,2.53565455 L43.7537438,5.33565455 C43.7537438,5.51701818 43.7907533,5.65256364 43.8666867,5.74356364 C43.9413438,5.83329091 44.069601,5.87847273 44.25082,5.87847273 C44.3414295,5.87847273 44.4639438,5.86192727 44.619639,5.82883636 L44.619639,6.45438182 C44.4154486,6.50847273 44.2182771,6.53710909 44.0255724,6.53710909 C43.6797248,6.53710909 43.4181057,6.43274545 43.2419914,6.22338182 C43.0665152,6.01592727 42.9790962,5.71874545 42.9790962,5.33565455 L42.9790962,2.53565455 L42.153401,2.53565455 L42.153401,1.93747273 L42.9790962,1.93747273 L42.9790962,0.842927273 L43.7537438,0.842927273 Z M40.9531438,0.842927273 L40.9531438,1.93747273 L41.7973438,1.93747273 L41.7973438,2.53565455 L40.9531438,2.53565455 L40.9531438,5.33565455 C40.9531438,5.51701818 40.9907914,5.65256364 41.0660867,5.74356364 C41.1401057,5.83329091 41.269001,5.87847273 41.45022,5.87847273 C41.5401914,5.87847273 41.6633438,5.86192727 41.8196771,5.82883636 L41.8196771,6.45438182 C41.6148486,6.50847273 41.4176771,6.53710909 41.2243343,6.53710909 C40.8784867,6.53710909 40.6175057,6.43274545 40.4413914,6.22338182 C40.2659152,6.01592727 40.1784962,5.71874545 40.1784962,5.33565455 L40.1784962,2.53565455 L39.3521629,2.53565455 L39.3521629,1.93747273 L40.1784962,1.93747273 L40.1784962,0.842927273 L40.9531438,0.842927273 Z M37.141801,2.48410909 C36.8291343,2.48410909 36.5675152,2.59801818 36.3550295,2.82583636 C36.1431819,3.05429091 36.0117343,3.37310909 35.9619629,3.78356364 L38.2316676,3.78356364 L38.2316676,3.72501818 C38.2080581,3.33047273 38.1021343,3.02565455 37.91262,2.80929091 C37.7224676,2.59229091 37.4646771,2.48410909 37.141801,2.48410909 L37.141801,2.48410909 Z M37.2381533,6.53710909 C36.6249438,6.53710909 36.1246771,6.33601818 35.7386295,5.93447273 C35.3544962,5.53101818 35.1617914,4.99329091 35.1617914,4.32001818 L35.1617914,4.17683636 C35.1617914,3.72947273 35.2479343,3.3292 35.4189438,2.97729091 C35.5905914,2.62538182 35.8305152,2.34856364 36.1387152,2.15129091 C36.4481914,1.95147273 36.7819152,1.85156364 37.141801,1.85156364 C37.7307629,1.85156364 38.1882771,2.04565455 38.51562,2.43129091 C38.8416867,2.81883636 39.005039,3.37310909 39.005039,4.09410909 L39.005039,4.41674545 L35.936439,4.41674545 C35.9472867,4.86092727 36.0780962,5.22047273 36.3275914,5.49347273 C36.5777248,5.76774545 36.8948581,5.90392727 37.2802676,5.90392727 C37.5533724,5.90392727 37.785001,5.84856364 37.9751533,5.7372 C38.1653057,5.62583636 38.3312105,5.47947273 38.4735057,5.29747273 L38.9469724,5.66465455 C38.5666676,6.24629091 37.9962105,6.53710909 37.2381533,6.53710909 L37.2381533,6.53710909 Z M33.6080295,4.15710909 C33.6080295,3.63147273 33.5052962,3.22483636 33.30302,2.93910909 C33.0988295,2.65274545 32.8059438,2.5102 32.4237248,2.5102 C31.9119724,2.5102 31.5450676,2.74629091 31.3217343,3.21783636 L31.3217343,5.17083636 C31.5591057,5.64238182 31.929839,5.87847273 32.4313819,5.87847273 C32.8027533,5.87847273 33.0911724,5.73592727 33.2985533,5.44956364 C33.50402,5.1632 33.6080295,4.73110909 33.6080295,4.15710909 L33.6080295,4.15710909 Z M34.3826771,4.24429091 C34.3826771,4.93538182 34.2231533,5.48965455 33.9053819,5.90838182 C33.5869724,6.32774545 33.1594486,6.53710909 32.6234486,6.53710909 C32.0523533,6.53710909 31.6095152,6.33474545 31.2974867,5.93129091 L31.259201,6.4512 L30.5477248,6.4512 L30.5477248,0.0385636364 L31.3217343,0.0385636364 L31.3217343,2.43129091 C31.6356771,2.04565455 32.0663914,1.85156364 32.6157914,1.85156364 C33.1658295,1.85156364 33.5971819,2.05965455 33.9117629,2.47392727 C34.2257057,2.88883636 34.3826771,3.45583636 34.3826771,4.17683636 L34.3826771,4.24429091 Z M27.7126676,2.62538182 C27.5958962,2.60501818 27.4682771,2.59547273 27.3323629,2.59547273 C26.824439,2.59547273 26.4798676,2.81056364 26.2980105,3.24201818 L26.2980105,6.4512 L25.5233629,6.4512 L25.5233629,1.93747273 L26.2763152,1.93747273 L26.2897152,2.45674545 C26.5436771,2.05392727 26.904201,1.85156364 27.3700105,1.85156364 C27.521239,1.85156364 27.6354581,1.87129091 27.7126676,1.91010909 L27.7126676,2.62538182 Z M23.5931248,6.00701818 C23.2925819,6.3602 22.8503819,6.53710909 22.2671629,6.53710909 C21.7841248,6.53710909 21.41722,6.39710909 21.1638962,6.11774545 C20.9112105,5.83774545 20.7842295,5.42410909 20.781039,4.87556364 L20.781039,1.93747273 L21.5556867,1.93747273 L21.5556867,4.85265455 C21.5556867,5.53674545 21.8338962,5.87847273 22.3928676,5.87847273 C22.9843819,5.87847273 23.3774486,5.65892727 23.5733438,5.22047273 L23.5733438,1.93747273 L24.3479914,1.93747273 L24.3479914,6.4512 L23.6103533,6.4512 L23.5931248,6.00701818 Z M16.4815533,4.24301818 C16.4815533,4.7432 16.5970486,5.14665455 16.8299533,5.44956364 C17.0628581,5.75374545 17.3761629,5.90392727 17.766039,5.90392727 C18.1584676,5.90392727 18.4724105,5.75056364 18.703401,5.44256364 C18.9350295,5.13456364 19.0505248,4.70438182 19.0505248,4.15010909 C19.0505248,3.65438182 18.9331152,3.25347273 18.6976581,2.94610909 C18.4615629,2.63810909 18.1488962,2.48410909 17.7577438,2.48410909 C17.3761629,2.48410909 17.0673248,2.63492727 16.8325057,2.93910909 C16.5983248,3.24201818 16.4815533,3.67729091 16.4815533,4.24301818 L16.4815533,4.24301818 Z M15.702439,4.15265455 C15.702439,3.70974545 15.7898581,3.31201818 15.9640581,2.95883636 C16.1382581,2.60374545 16.3813724,2.33201818 16.693401,2.1392 C17.0028771,1.94701818 17.3589343,1.85156364 17.7577438,1.85156364 C18.3747819,1.85156364 18.8737724,2.06410909 19.2547152,2.48983636 C19.63502,2.9162 19.8251724,3.4832 19.8251724,4.1902 L19.8251724,4.24429091 C19.8251724,4.68465455 19.7409438,5.0792 19.5718486,5.42856364 C19.4040295,5.77729091 19.1621914,6.04965455 18.8482486,6.24501818 C18.5343057,6.44038182 18.1731438,6.53710909 17.766039,6.53710909 C17.1515533,6.53710909 16.6544771,6.32456364 16.2741724,5.8982 C15.8925914,5.47247273 15.702439,4.90865455 15.702439,4.20738182 L15.702439,4.15265455 Z M13.3963629,5.31974545 L14.4511343,1.93747273 L15.28002,1.93747273 L13.4588962,7.14674545 C13.1768581,7.89829091 12.7295533,8.27310909 12.1150676,8.27310909 L11.9689438,8.25974545 L11.6798867,8.20565455 L11.6798867,7.58010909 L11.8885438,7.59729091 C12.151439,7.59729091 12.3562676,7.54447273 12.5017533,7.43883636 C12.6491533,7.33383636 12.7691152,7.13974545 12.8648295,6.85910909 L13.0364771,6.40156364 L11.4201819,1.93747273 L12.2662962,1.93747273 L13.3963629,5.31974545 Z M7.03519143,2.48410909 C6.72252476,2.48410909 6.46026762,2.59801818 6.24714381,2.82583636 C6.03593429,3.05429091 5.90448667,3.37310909 5.85471524,3.78356364 L8.1237819,3.78356364 L8.1237819,3.72501818 C8.10081048,3.33047273 7.99552476,3.02565455 7.80537238,2.80929091 C7.61522,2.59229091 7.35806762,2.48410909 7.03519143,2.48410909 L7.03519143,2.48410909 Z M7.13026762,6.53710909 C6.51769619,6.53710909 6.01742952,6.33601818 5.63202,5.93447273 C5.24724857,5.53101818 5.05454381,4.99329091 5.05454381,4.32001818 L5.05454381,4.17683636 C5.05454381,3.72947273 5.14004857,3.3292 5.31169619,2.97729091 C5.48334381,2.62538182 5.72326762,2.34856364 6.03210571,2.15129091 C6.34030571,1.95147273 6.67466762,1.85156364 7.03519143,1.85156364 C7.62415333,1.85156364 8.08102952,2.04565455 8.40773429,2.43129091 C8.73380095,2.81883636 8.89842952,3.37310909 8.89842952,4.09410909 L8.89842952,4.41674545 L5.82855333,4.41674545 C5.84067714,4.86092727 5.97021048,5.22047273 6.22034381,5.49347273 C6.47047714,5.76774545 6.78761048,5.90392727 7.1736581,5.90392727 C7.44612476,5.90392727 7.67839143,5.84856364 7.86854381,5.7372 C8.05742,5.62583636 8.22396286,5.47947273 8.36689619,5.29747273 L8.83972476,5.66465455 C8.45942,6.24629091 7.88960095,6.53710909 7.13026762,6.53710909 L7.13026762,6.53710909 Z M0.839286667,2.96329091 L2.05230571,2.96329091 C2.40389619,2.96329091 2.68529619,2.8742 2.89714381,2.6992 C3.10707714,2.52356364 3.21300095,2.28747273 3.21300095,1.98710909 C3.21300095,1.65174545 3.11409619,1.40992727 2.92011524,1.25847273 C2.7235819,1.10638182 2.42686762,1.03065455 2.0280581,1.03065455 L0.839286667,1.03065455 L0.839286667,2.96329091 Z M0.839286667,3.62129091 L0.839286667,5.7932 L2.16524857,5.7932 C2.53981048,5.7932 2.83524857,5.69774545 3.05156286,5.50492727 C3.26723905,5.31274545 3.37571524,5.04801818 3.37571524,4.71138182 C3.37571524,3.98465455 2.97690571,3.62129091 2.17801048,3.62129091 L0.839286667,3.62129091 Z M0.0346485714,6.4512 L0.0346485714,0.372654545 L2.0280581,0.372654545 C2.68976286,0.372654545 3.18747714,0.508836364 3.51992476,0.782472727 C3.85301048,1.05483636 4.02019143,1.45956364 4.02019143,1.99538182 C4.02019143,2.2792 3.93979143,2.5312 3.77707714,2.74947273 C3.61563905,2.96901818 3.39549619,3.13829091 3.11537238,3.25792727 C3.44590571,3.34892727 3.70561048,3.52456364 3.89703905,3.78101818 C4.08910571,4.03874545 4.18290571,4.34547273 4.18290571,4.69992727 C4.18290571,5.24592727 4.00615333,5.67356364 3.65137238,5.98410909 C3.29659143,6.29592727 2.79696286,6.4512 2.14993429,6.4512 L0.0346485714,6.4512 Z" id="Fill-5" fill="#FEFEFE" mask="url(#mask-2)"></path>
            </g>
            <g id="Group-10" transform="translate(0.000000, 0.599200)">
                <mask id="mask-4" fill="white">
                    <use xlink:href="#path-3"></use>
                </mask>
                <g id="Clip-9"></g>
                <path d="M19.5265438,0.543009091 L36.0710771,15.2239182 C36.7863819,15.8583727 36.7474581,17.0031909 36.0710771,17.6777364 C35.3940581,18.3529182 34.3290771,18.3083727 33.6099438,17.6771 L18.2962962,4.22373636 L2.98264857,17.6771 C2.26351524,18.3083727 1.19853429,18.3529182 0.522153333,17.6777364 C-0.154865714,17.0031909 -0.193151429,15.8583727 0.522153333,15.2239182 L17.0526486,0.557009091 C17.7245629,-0.132172727 18.8463343,-0.135354545 19.5265438,0.543009091" id="Fill-8" fill="#FEFEFE" mask="url(#mask-4)"></path>
            </g>
        </g>
    </g>
</svg>