<?xml version="1.0" encoding="UTF-8"?>
<svg width="18px" height="19px" viewBox="0 0 18 19" version="1.1" xmlns="http://www.w3.org/2000/svg" xmlns:xlink="http://www.w3.org/1999/xlink">
    <!-- Generator: Sketch 57.1 (83088) - https://sketch.com -->
    <title>map</title>
    <desc>Created with Sketch.</desc>
    <g id="Homepage" stroke="none" stroke-width="1" fill="none" fill-rule="evenodd">
        <g id="Homepage-Hien-thi-du-lieu" transform="translate(-869.000000, -374.000000)" fill="#0298DA" fill-rule="nonzero">
            <path d="M886.455078,376.498047 C886.607423,376.544922 886.736328,376.635742 886.841797,376.770508 C886.947266,376.905274 887,377.054687 887,377.21875 L887,391.632812 C887,391.761719 886.961914,391.867187 886.885742,391.949219 C886.80957,392.03125 886.712891,392.072266 886.595703,392.072266 C886.572266,392.072266 886.548828,392.069336 886.525391,392.063477 C886.501953,392.057617 886.478516,392.054688 886.455078,392.054688 L880.8125,389.839844 L875.205078,392.107422 L869.544922,389.875 C869.392577,389.828125 869.263672,389.737305 869.158203,389.602539 C869.052734,389.467773 869,389.31836 869,389.154297 L869,374.564453 C869,374.435546 869.038086,374.333008 869.114258,374.256836 C869.19043,374.180664 869.287109,374.142578 869.404297,374.142578 L869.474609,374.142578 C869.498047,374.142578 869.521484,374.148437 869.544922,374.160156 L875.205078,376.375 L880.8125,374.160156 L886.455078,376.498047 Z M875.75,377.306641 L875.75,390.71875 L880.25,388.925781 L880.25,375.548828 L875.75,377.306641 Z M870.125,375.654297 L870.125,388.873047 L874.625,390.701172 L874.625,377.306641 L870.125,375.654297 Z M885.875,390.613281 L885.875,377.5 L881.375,375.566406 L881.375,388.925781 L885.875,390.613281 Z" id="map"></path>
        </g>
    </g>
</svg>