<?xml version="1.0" encoding="UTF-8"?>
<svg width="20px" height="20px" viewBox="0 0 20 20" version="1.1" xmlns="http://www.w3.org/2000/svg" xmlns:xlink="http://www.w3.org/1999/xlink">
    <title>save</title>
    <g id="Page-1" stroke="none" stroke-width="1" fill="none" fill-rule="evenodd">
        <g id="save">
            <rect id="Mask" x="0" y="0" width="20" height="20"></rect>
            <path d="M16,0.5 C16.6903559,0.5 17.3153559,0.779822031 17.767767,1.23223305 C18.220178,1.68464406 18.5,2.30964406 18.5,3 L18.5,3 L18.5,18 C18.5,18.4142136 18.3321068,18.7892136 18.0606602,19.0606602 C17.8272381,19.2940822 17.5172425,19.4509306 17.1715853,19.4902933 L17.1715853,19.4902933 L9.89680542,13.3386575 L2.9561088,19.4919189 C2.55891419,19.4559527 2.2141135,19.301618 1.95899757,19.0628258 C1.67036539,18.7926618 1.5,18.4161418 1.5,18 L1.5,18 L1.5,3 C1.5,2.30964406 1.77982203,1.68464406 2.23223305,1.23223305 C2.68464406,0.779822031 3.30964406,0.5 4,0.5 L4,0.5 Z" id="Rectangle" stroke="#FFFFFF"></path>
        </g>
    </g>
</svg>