<?xml version="1.0" encoding="UTF-8"?>
<svg width="14px" height="14px" viewBox="0 0 14 14" version="1.1" xmlns="http://www.w3.org/2000/svg" xmlns:xlink="http://www.w3.org/1999/xlink">
    <!-- Generator: Sketch 59.1 (86144) - https://sketch.com -->
    <title>search</title>
    <desc>Created with Sketch.</desc>
    <g id="search" stroke="none" stroke-width="1" fill="none" fill-rule="evenodd">
        <path d="M13.7413001,13.7417297 C13.3969505,14.0860901 12.8384037,14.0860901 12.4934705,13.7417297 L9.78769972,11.0358743 C8.76574013,11.7993038 7.50215219,12.2563108 6.12825564,12.2563108 C2.74370759,12.2563108 0,9.51310112 0,6.12844725 C0,2.74379338 2.74370759,9.23705556e-14 6.12825564,9.23705556e-14 C9.51280368,9.23705556e-14 12.2565113,2.74379338 12.2565113,6.12844725 C12.2565113,7.5018031 11.7989349,8.76601422 11.0355293,9.78800575 L13.7413001,12.4938611 C14.0862333,12.8382215 14.0862333,13.3967857 13.7413001,13.7417297 L13.7413001,13.7417297 Z M6.12825564,1.75098493 C3.7108047,1.75098493 1.75093018,3.71092073 1.75093018,6.12844725 C1.75093018,8.54539012 3.7108047,10.5059096 6.12825564,10.5059096 C8.54570657,10.5059096 10.5055811,8.54539012 10.5055811,6.12844725 C10.5055811,3.71092073 8.54570657,1.75098493 6.12825564,1.75098493 L6.12825564,1.75098493 Z" id="Search-Icon" fill="#9B9B9B"></path>
    </g>
</svg>