<?xml version="1.0" encoding="UTF-8"?>
<svg width="20px" height="20px" viewBox="0 0 20 20" version="1.1" xmlns="http://www.w3.org/2000/svg" xmlns:xlink="http://www.w3.org/1999/xlink">
    <title>share</title>
    <g id="Page-1" stroke="none" stroke-width="1" fill="none" fill-rule="evenodd">
        <g id="share">
            <rect id="Mask" x="0" y="0" width="20" height="20"></rect>
            <path d="M16.1875,13.375 C16.9609414,13.375 17.6230441,13.6503879 18.1738281,14.2011719 C18.7246121,14.7519559 19,15.4140586 19,16.1875 C19,16.9609414 18.7246121,17.6230441 18.1738281,18.1738281 C17.6230441,18.7246121 16.9609414,19 16.1875,19 C15.4140586,19 14.7519559,18.7246121 14.2011719,18.1738281 C13.6503879,17.6230441 13.375,16.9609414 13.375,16.1875 C13.375,16.0703119 13.3808593,15.9589849 13.3925781,15.8535156 C13.4042969,15.7480463 13.4277342,15.6425787 13.4628906,15.5371094 L6.00976563,11.7402344 C5.75195184,12.068361 5.43261909,12.3291006 5.05175781,12.5224609 C4.67089653,12.7158213 4.25781473,12.8125 3.8125,12.8125 C3.03905863,12.8125 2.37695588,12.5371121 1.82617188,11.9863281 C1.27538787,11.4355441 1,10.7734414 1,10 C1,9.22655863 1.27538787,8.56445588 1.82617188,8.01367188 C2.37695588,7.46288787 3.03905863,7.1875 3.8125,7.1875 C4.2226583,7.1875 4.60644353,7.26953043 4.96386719,7.43359375 C5.32129085,7.59765707 5.62890496,7.82617041 5.88671875,8.11914063 L13.4453125,4.4453125 C13.4218749,4.33984322 13.4042969,4.23437553 13.3925781,4.12890625 C13.3808593,4.02343697 13.375,3.91796928 13.375,3.8125 C13.375,3.03905863 13.6503879,2.37695588 14.2011719,1.82617188 C14.7519559,1.27538787 15.4140586,1 16.1875,1 C16.9609414,1 17.6230441,1.27538787 18.1738281,1.82617188 C18.7246121,2.37695588 19,3.03905863 19,3.8125 C19,4.58594137 18.7246121,5.24804412 18.1738281,5.79882813 C17.6230441,6.34961213 16.9609414,6.625 16.1875,6.625 C15.7187477,6.625 15.2880879,6.5195323 14.8955078,6.30859375 C14.5029277,6.0976552 14.1777357,5.81640801 13.9199219,5.46484375 L6.46679688,9.0859375 C6.51367211,9.2265632 6.55175767,9.37304611 6.58105469,9.52539063 C6.61035171,9.67773514 6.625,9.83593668 6.625,10 C6.625,10.1289069 6.61621103,10.2548822 6.59863281,10.3779297 C6.5810546,10.5009772 6.55468768,10.6210932 6.51953125,10.7382813 L13.9375,14.5175781 C14.183595,14.1660139 14.5029277,13.8876963 14.8955078,13.6826172 C15.2880879,13.477538 15.7187477,13.375 16.1875,13.375 Z M16.1875,2.125 C15.7187477,2.125 15.3203141,2.28906086 14.9921875,2.6171875 C14.6640609,2.94531414 14.5,3.34374766 14.5,3.8125 C14.5,4.28125234 14.6640609,4.67968586 14.9921875,5.0078125 C15.3203141,5.33593914 15.7187477,5.5 16.1875,5.5 C16.6562523,5.5 17.0546859,5.33593914 17.3828125,5.0078125 C17.7109391,4.67968586 17.875,4.28125234 17.875,3.8125 C17.875,3.34374766 17.7109391,2.94531414 17.3828125,2.6171875 C17.0546859,2.28906086 16.6562523,2.125 16.1875,2.125 Z M3.8125,11.6875 C4.28125234,11.6875 4.67968586,11.5234391 5.0078125,11.1953125 C5.33593914,10.8671859 5.5,10.4687523 5.5,10 C5.5,9.53124766 5.33593914,9.13281414 5.0078125,8.8046875 C4.67968586,8.47656086 4.28125234,8.3125 3.8125,8.3125 C3.34374766,8.3125 2.94531414,8.47656086 2.6171875,8.8046875 C2.28906086,9.13281414 2.125,9.53124766 2.125,10 C2.125,10.4687523 2.28906086,10.8671859 2.6171875,11.1953125 C2.94531414,11.5234391 3.34374766,11.6875 3.8125,11.6875 Z M16.1875,17.875 C16.6562523,17.875 17.0546859,17.7109391 17.3828125,17.3828125 C17.7109391,17.0546859 17.875,16.6562523 17.875,16.1875 C17.875,15.7187477 17.7109391,15.3203141 17.3828125,14.9921875 C17.0546859,14.6640609 16.6562523,14.5 16.1875,14.5 C15.7187477,14.5 15.3203141,14.6640609 14.9921875,14.9921875 C14.6640609,15.3203141 14.5,15.7187477 14.5,16.1875 C14.5,16.6562523 14.6640609,17.0546859 14.9921875,17.3828125 C15.3203141,17.7109391 15.7187477,17.875 16.1875,17.875 Z" id="î›" fill="#FFFFFF" fill-rule="nonzero"></path>
        </g>
    </g>
</svg>