<?xml version="1.0" encoding="UTF-8"?>
<svg width="28px" height="28px" viewBox="0 0 28 28" version="1.1" xmlns="http://www.w3.org/2000/svg" xmlns:xlink="http://www.w3.org/1999/xlink">
    <title>Group 70</title>
    <g id="Mobile" stroke="none" stroke-width="1" fill="none" fill-rule="evenodd">
        <g id="2.1-Homepage---Internal-Link-mb" transform="translate(-218.000000, -410.000000)">
            <g id="Group-35" transform="translate(0.000000, 276.000000)">
                <g id="Group-56" transform="translate(15.000000, 0.000000)">
                    <g id="Group-52" transform="translate(9.000000, 124.000000)">
                        <g id="Group-45" transform="translate(184.000000, 0.000000)">
                            <g id="Group-70" transform="translate(10.000000, 10.812000)">
                                <polygon id="Path" fill="#0298DA" fill-rule="nonzero" points="14.1115841 3.10992795 26.7826836 13.3864542 27.9956424 11.9420608 14.1115841 2.36746214e-14 -1.90232956e-14 11.7131474 1.440424 13.3864542"></polygon>
                                <path d="M14.0836653,5.57768924 L24.0956175,13.6834818 L24.0956175,22.8685259 L4.07171315,22.8685259 L4.07171315,13.6834818 L14.0836653,5.57768924 Z M16.4752,11.648 C15.512,11.6494875 14.6097,11.9313388 14.056,12.7194583 C13.5023,11.9313388 12.6,11.6494875 11.6368,11.648 C10.061625,11.648 8.68,13.1135505 8.68,14.7840278 C8.68,16.4120673 9.59927499,18.0888447 11.3386,19.6332334 C12.144475,20.3474147 13.0284875,20.9682327 13.97375,21.4840498 C14.025375,21.5106501 14.086625,21.5106501 14.13825,21.4840498 C15.0831625,20.9682327 15.9669125,20.3473272 16.772525,19.6332334 C18.512725,18.0888447 19.432,16.4120673 19.432,14.7840278 C19.432,13.1135505 18.050375,11.648 16.4752,11.648 Z" id="Combined-Shape" fill="#F89520" fill-rule="nonzero"></path>
                                <path d="M15.7025896,13.2191235 C16.7566939,13.2191235 17.6812749,14.1977938 17.6812749,15.3133109 C17.6812749,16.4004886 17.0660977,17.5202127 15.901559,18.5515299 C15.3624446,19.0283899 14.7710406,19.4430203 14.1387069,19.7874744 C14.1041595,19.8052376 14.0631711,19.8052376 14.0286238,19.7874744 C13.3960558,19.4430203 12.8044762,19.0284483 12.2651861,18.5515299 C11.101233,17.5202127 10.4860558,16.4004886 10.4860558,15.3133109 C10.4860558,14.1977938 11.4106368,13.2191235 12.464741,13.2191235 C13.1093127,13.2201168 13.7131303,13.8629225 14.0836653,14.3892156 C14.4542004,13.8629225 15.0580179,13.2201168 15.7025896,13.2191235 Z" id="Shape" fill="#0298DA" fill-rule="nonzero"></path>
                                <path d="M4.0438247,24.0956175 L24.123506,24.0956175 C25.3556951,24.0956175 26.3545817,25.0945041 26.3545817,26.3266932 L26.3545817,26.3266932 L26.3545817,26.3266932 L1.812749,26.3266932 C1.812749,25.0945041 2.81163562,24.0956175 4.0438247,24.0956175 Z" id="Rectangle" fill="#0298DA"></path>
                            </g>
                        </g>
                    </g>
                </g>
            </g>
        </g>
    </g>
</svg>